<svg width="144" height="144" viewBox="0 0 144 144" fill="none" xmlns="http://www.w3.org/2000/svg">
<circle cx="72" cy="72" r="69.5" fill="white" stroke="#22AFFF" stroke-width="5"/>
<path fill-rule="evenodd" clip-rule="evenodd" d="M121.023 45.3926C120.939 45.2407 121.107 45.0745 121.258 45.1599C121.312 45.1904 121.346 45.2476 121.346 45.3096C121.346 45.4875 121.109 45.5484 121.023 45.3926ZM114.474 46.5775C116.531 45.4449 116.548 42.4948 114.504 41.3384L73.5001 18.1382C72.5835 17.6196 71.4621 17.6196 70.5455 18.1382L33.8674 38.8908C31.8181 40.0503 31.8422 43.0107 33.9102 44.1366L74.5629 66.2697C74.8635 66.4334 74.9746 66.8099 74.8109 67.1106C74.5147 67.6546 75.1116 68.2487 75.6542 67.95L114.474 46.5775ZM75.0754 79.5109C74.9997 79.3734 74.7907 79.4272 74.7907 79.5841V122.22C74.7907 124.518 77.2682 125.962 79.268 124.831L119.823 101.885C120.764 101.352 121.346 100.355 121.346 99.2738V59.2858C121.346 57.0034 118.898 55.557 116.899 56.6578L75.2815 79.5706C75.2081 79.611 75.1158 79.5843 75.0754 79.5109ZM22.7 54.4685C22.7 52.1924 25.1355 50.7453 27.1345 51.8337L64.9134 72.4022C64.989 72.4434 64.9598 72.5581 64.8737 72.5581C64.8279 72.5581 64.7907 72.5953 64.7907 72.6412V119.694C64.7907 121.992 62.3133 123.437 60.3134 122.305L24.2227 101.885C23.2818 101.352 22.7 100.355 22.7 99.2738V54.4685Z" fill="#00185B"/>
<path d="M50.5116 42.6977C48.9488 43.1442 47.4419 42.9767 46.3256 45.2093C46.3256 46.6047 47.1628 48 48.8372 48.8372C50.0853 49.4612 53.5814 49.1163 54.1395 48.8372C55.2558 48.2791 56.093 47.7209 56.3721 47.1628C56.6512 46.6047 56.6512 46.0465 56.6512 45.2093C56.6512 44.5395 55.3488 43.6279 54.6977 43.2558C52.4651 42.6977 51.3488 42.4585 50.5116 42.6977Z" fill="#22AFFF"/>
<path d="M65.3023 39.3488C63.0698 39.907 59.1628 40.7442 57.2093 40.7442C56.3163 41.6372 56.8372 43.3488 57.2093 44.093L58.3256 46.0465C58.6977 46.4186 59.5535 47.1628 60 47.1628C60.4465 47.1628 60.9302 48.6512 61.1163 49.3954V51.3488C61.1163 51.7209 61.2279 52.6884 61.6744 53.5814C62.1209 54.4744 62.7907 53.9535 63.0698 53.5814L63.3488 52.4651V51.0698L63.0698 49.3954V47.7209L62.5116 46.6047L61.6744 45.2093L61.9535 44.3721H63.0698L63.3488 45.2093C63.3488 46.0465 64.7442 45.7674 64.7442 47.7209C64.7442 48.2791 65.4884 49.4884 65.3023 49.3954L65.0233 50.7907L65.3023 52.4651C66.4186 53.3023 66.5302 51.8512 66.9767 50.5116C66.9767 48.7256 66.6047 47.5349 66.4186 47.1628L64.4651 44.093L67.2558 43.2558L70.6047 42.6977L71.7209 42.4186C72.8372 41.8605 74.0651 42.5302 75.6279 41.8605C77.1907 41.1907 78.3256 40.8372 78.6977 40.7442H81.4884L87.0698 39.6279C87.814 39.5349 90.1395 39.1814 93.4884 38.5116C93.9349 38.7349 95.3488 38.4186 96 38.2326C96.2791 38.2326 96.8372 38.0651 96.8372 37.3954C96.8372 36.7256 96.2791 36.3721 96 36.2791L94.0465 35.7209C92.093 36 85.786 37.1163 76.186 38.2326C67.814 37.9535 67.5349 38.7907 65.3023 39.3488Z" fill="#22AFFF"/>
<path d="M100.186 37.3954L59.4419 56.9302C58.9954 59.1628 60.9302 59.3488 61.9535 59.1628C75.2558 52.6512 101.972 39.5721 102.419 39.3488C102.865 39.1256 101.116 37.9535 100.186 37.3954Z" fill="#22AFFF"/>
<path d="M41.4745 89.0233C39.6782 90.2952 39.648 91.7337 39.7415 92.6169C41.4255 92.6169 47.228 97.9836 47.228 96.9237C47.228 95.8638 48.4393 94.7417 49.6505 93.7635C50.567 93.0234 52.218 92.4888 53.2843 92.1834C54.7984 91.7499 57.9849 89.1722 56.5816 86.5224C55.2344 81.6467 53.2136 79.0145 52.3716 78.3079C47.0389 71.1534 36.9349 69.5635 36.0929 70.6234C35.4193 71.4714 35.8122 75.3931 36.0929 77.248C37.6833 76.983 41.5939 76.824 44.5129 78.3079C48.1616 80.1628 50.4069 84.6675 47.6002 85.4624C44.7935 86.2574 43.7198 87.4334 41.4745 89.0233Z" fill="white"/>
<path d="M47.6002 99.7715L40.5835 95.5317H39.7415V103.216L47.6002 107.721V99.7715Z" fill="white"/>
<path d="M41.4745 89.0233C39.6782 90.2952 39.648 91.7337 39.7415 92.6169C41.4255 92.6169 47.228 97.9836 47.228 96.9237C47.228 95.8638 48.4393 94.7417 49.6505 93.7635C50.567 93.0234 52.218 92.4888 53.2843 92.1834C54.7984 91.7499 57.9849 89.1722 56.5816 86.5224C55.2344 81.6467 53.2136 79.0145 52.3716 78.3079C47.0389 71.1534 36.9349 69.5635 36.0929 70.6234C35.4193 71.4714 35.8122 75.3931 36.0929 77.248C37.6833 76.983 41.5939 76.824 44.5129 78.3079C48.1616 80.1628 50.4069 84.6675 47.6002 85.4624C44.7935 86.2574 43.7198 87.4334 41.4745 89.0233Z" stroke="white"/>
<path d="M47.6002 99.7715L40.5835 95.5317H39.7415V103.216L47.6002 107.721V99.7715Z" stroke="white"/>
<path d="M95.0695 94.0753V97.7914L103.731 93.0136C102.288 89.563 108.64 85.847 110.372 78.4149C112.066 71.1478 111.527 72.368 110.372 70.7754C109.217 69.1829 99.1116 72.3099 99.4004 72.5754C99.6891 72.8408 89.5778 76.2914 89.8665 81.0692C90.1553 85.8469 89.5837 85.5815 91.0273 85.847C92.471 86.1124 92.7597 82.1309 97.9567 79.742C103.154 77.3531 102.288 80.2729 102.288 81.0692C102.288 81.8655 100.088 84.2211 97.9567 87.4976C96.7107 89.4133 95.5507 92.3943 95.0695 94.0753Z" fill="white"/>
<path d="M103.731 95.4745L95.0695 100.219V108.143L103.731 103.009V95.4745Z" fill="white"/>
<path d="M95.0695 94.0753V97.7914L103.731 93.0136C102.288 89.563 108.64 85.847 110.372 78.4149C112.066 71.1478 111.527 72.368 110.372 70.7754C109.217 69.1829 99.1116 72.3099 99.4004 72.5754C99.6891 72.8408 89.5778 76.2914 89.8665 81.0692C90.1553 85.8469 89.5837 85.5815 91.0273 85.847C92.471 86.1124 92.7597 82.1309 97.9567 79.742C103.154 77.3531 102.288 80.2729 102.288 81.0692C102.288 81.8655 100.088 84.2211 97.9567 87.4976C96.7107 89.4133 95.5507 92.3943 95.0695 94.0753Z" stroke="white"/>
<path d="M103.731 95.4745L95.0695 100.219V108.143L103.731 103.009V95.4745Z" stroke="white"/>
</svg>
