<svg width="36" height="32" viewBox="0 0 36 32" fill="none" xmlns="http://www.w3.org/2000/svg">
<mask id="path-1-inside-1_37_53" fill="white">
<path d="M8.60931 27.3137C11.2268 29.9027 14.661 31.5041 18.3268 31.8449C21.9926 32.1857 25.6632 31.245 28.7131 29.1829C31.763 27.1208 34.0036 24.0649 35.0531 20.5361C36.1025 17.0072 35.8959 13.2236 34.4684 9.82999C33.041 6.43637 30.481 3.6427 27.2246 1.92497C23.9683 0.207245 20.2171 -0.328249 16.6102 0.409725C13.0033 1.1477 9.76389 3.11348 7.44389 5.97214C5.12389 8.83079 3.86686 12.4054 3.88699 16.087L5.8307 16.0764C5.81303 12.8445 6.91652 9.70648 8.95314 7.197C10.9898 4.68752 13.8335 2.96185 16.9998 2.31401C20.1662 1.66618 23.4592 2.13627 26.3177 3.64418C29.1763 5.15209 31.4236 7.60453 32.6767 10.5836C33.9298 13.5627 34.1112 16.8842 33.19 19.982C32.2687 23.0798 30.3018 25.7624 27.6244 27.5726C24.947 29.3828 21.7248 30.2087 18.5068 29.9095C15.2887 29.6103 12.274 28.2046 9.97621 25.9318L8.60931 27.3137Z"/>
</mask>
<path d="M8.60931 27.3137C11.2268 29.9027 14.661 31.5041 18.3268 31.8449C21.9926 32.1857 25.6632 31.245 28.7131 29.1829C31.763 27.1208 34.0036 24.0649 35.0531 20.5361C36.1025 17.0072 35.8959 13.2236 34.4684 9.82999C33.041 6.43637 30.481 3.6427 27.2246 1.92497C23.9683 0.207245 20.2171 -0.328249 16.6102 0.409725C13.0033 1.1477 9.76389 3.11348 7.44389 5.97214C5.12389 8.83079 3.86686 12.4054 3.88699 16.087L5.8307 16.0764C5.81303 12.8445 6.91652 9.70648 8.95314 7.197C10.9898 4.68752 13.8335 2.96185 16.9998 2.31401C20.1662 1.66618 23.4592 2.13627 26.3177 3.64418C29.1763 5.15209 31.4236 7.60453 32.6767 10.5836C33.9298 13.5627 34.1112 16.8842 33.19 19.982C32.2687 23.0798 30.3018 25.7624 27.6244 27.5726C24.947 29.3828 21.7248 30.2087 18.5068 29.9095C15.2887 29.6103 12.274 28.2046 9.97621 25.9318L8.60931 27.3137Z" fill="#00185B" stroke="#00185B" stroke-width="1.6" mask="url(#path-1-inside-1_37_53)"/>
<path d="M5.18374 20.2951L9.80254 12.2951H0.564937L5.18374 20.2951Z" fill="#00185B"/>
<rect x="19.0214" y="6.45755" width="1.84501" height="11.0701" fill="#00185B"/>
<rect x="19.0214" y="17.5817" width="1.84501" height="10.1476" transform="rotate(-51.1988 19.0214 17.5817)" fill="#00185B"/>
</svg>
