<svg width="22" height="22" viewBox="0 0 22 22" fill="none" xmlns="http://www.w3.org/2000/svg">
<path d="M11 19.8611C15.8939 19.8611 19.8611 15.8939 19.8611 11C19.8611 6.10617 15.8939 2.13892 11 2.13892C6.10614 2.13892 2.13889 6.10617 2.13889 11C2.13889 15.8939 6.10614 19.8611 11 19.8611Z" fill="#F8FFF4" stroke="#F6511D"/>
<path d="M10.303 13.1914C10.303 12.8334 10.3308 12.523 10.3865 12.2604C10.4422 11.9939 10.5337 11.7532 10.661 11.5383C10.7924 11.3235 10.9713 11.1166 11.1981 10.9176C11.3812 10.7625 11.5403 10.6113 11.6756 10.4641C11.8148 10.3169 11.9243 10.1677 12.0038 10.0165C12.0834 9.86134 12.1232 9.69224 12.1232 9.5092C12.1232 9.18697 12.0476 8.94625 11.8964 8.78712C11.7492 8.62799 11.5284 8.54842 11.2339 8.54842C10.9992 8.54842 10.7863 8.62597 10.5954 8.78114C10.4044 8.93232 10.3069 9.18301 10.303 9.5331H8.4887C8.49666 8.96814 8.62198 8.50468 8.86472 8.14259C9.11137 7.78055 9.43958 7.51398 9.8494 7.34289C10.2632 7.16785 10.7247 7.08032 11.2339 7.08032C12.0814 7.08032 12.7419 7.28122 13.2153 7.68309C13.6927 8.08488 13.9314 8.66575 13.9314 9.42567C13.9314 9.77576 13.8638 10.0821 13.7285 10.3447C13.5933 10.6033 13.4142 10.846 13.1914 11.0728C12.9726 11.2996 12.7319 11.5363 12.4693 11.783C12.2425 11.982 12.0894 12.1888 12.0097 12.4037C11.9342 12.6185 11.8924 12.8811 11.8845 13.1914H10.303ZM10.112 15.0117C10.112 14.7411 10.2035 14.5163 10.3865 14.3372C10.5695 14.1543 10.8142 14.0627 11.1206 14.0627C11.4269 14.0627 11.6696 14.1543 11.8487 14.3372C12.0317 14.5163 12.1232 14.7411 12.1232 15.0117C12.1232 15.2782 12.0317 15.503 11.8487 15.686C11.6696 15.869 11.4269 15.9605 11.1206 15.9605C10.8142 15.9605 10.5695 15.869 10.3865 15.686C10.2035 15.503 10.112 15.2782 10.112 15.0117Z" fill="#F6511D"/>
</svg>
