<svg width="44" height="44" viewBox="0 0 44 44" fill="none" xmlns="http://www.w3.org/2000/svg">
<path d="M22 9.16675V3.66675L14.6667 11.0001L22 18.3334V12.8334C28.0683 12.8334 33 17.7651 33 23.8334C33 29.2784 29.0217 33.7884 23.8333 34.6684V38.3717C31.075 37.4734 36.6667 31.3134 36.6667 23.8334C36.6667 15.7301 30.1033 9.16675 22 9.16675Z" fill="#00185B"/>
<path d="M11 23.8335C11 20.8085 12.2283 18.0585 14.2267 16.0601L11.6233 13.4568C8.98333 16.1151 7.33333 19.7818 7.33333 23.8335C7.33333 31.3135 12.925 37.4735 20.1667 38.3718V34.6685C14.9783 33.7885 11 29.2785 11 23.8335Z" fill="#00185B"/>
</svg>
